<?xml version="1.0" encoding="utf-8"?>
<!-- Generator: Adobe Illustrator 21.0.2, SVG Export Plug-In . SVG Version: 6.00 Build 0)  -->
<svg version="1.1" id="Layer_1" xmlns="http://www.w3.org/2000/svg" xmlns:xlink="http://www.w3.org/1999/xlink" x="0px" y="0px"
	 viewBox="0 0 141 25" style="enable-background:new 0 0 141 25;" xml:space="preserve">
<style type="text/css">
	.st0{fill:#F8255E;}
</style>
<g>
	<path class="st0" d="M11.3,22.6v-5.3c0-0.4,0-0.8,0.1-1.1c0-0.4,0.1-0.7,0.2-1c-0.2,0.3-0.5,0.5-0.8,0.7c-0.3,0.2-0.6,0.4-0.9,0.6
		l-4.6,2.7l-1.7-2.9l4.6-2.7c0.3-0.2,0.7-0.4,1-0.5c0.3-0.1,0.7-0.2,1.1-0.3c-0.4,0-0.7-0.1-1.1-0.3c-0.3-0.2-0.7-0.3-1-0.6L3.7,9.2
		l1.7-2.9L9.9,9c0.3,0.2,0.6,0.4,0.9,0.7c0.3,0.2,0.6,0.5,0.8,0.7c-0.1-0.3-0.2-0.7-0.3-1c0-0.4-0.1-0.7-0.1-1.1V2.9h3.4v5.3
		c0,0.4,0,0.8-0.1,1.2c0,0.4-0.1,0.7-0.3,1.1c0.2-0.3,0.5-0.5,0.8-0.7c0.3-0.2,0.6-0.4,1-0.7l4.6-2.7l1.7,2.9l-4.6,2.6
		c-0.3,0.2-0.7,0.4-1,0.5c-0.3,0.1-0.7,0.2-1.1,0.3c0.7,0.1,1.4,0.4,2.1,0.8l4.6,2.7l-1.7,2.9l-4.6-2.7c-0.3-0.2-0.7-0.4-1-0.6
		c-0.3-0.2-0.6-0.5-0.8-0.7c0.2,0.6,0.4,1.3,0.4,2.1v5.3H11.3z"/>
</g>
<g>
	<path class="st0" d="M34.3,22.6v-5.3c0-0.4,0-0.8,0.1-1.1c0-0.4,0.1-0.7,0.2-1c-0.2,0.3-0.5,0.5-0.8,0.7c-0.3,0.2-0.6,0.4-0.9,0.6
		l-4.6,2.7l-1.7-2.9l4.6-2.7c0.3-0.2,0.7-0.4,1-0.5c0.3-0.1,0.7-0.2,1.1-0.3c-0.4,0-0.7-0.1-1.1-0.3c-0.3-0.2-0.7-0.3-1-0.6
		l-4.6-2.7l1.7-2.9L32.9,9c0.3,0.2,0.6,0.4,0.9,0.7c0.3,0.2,0.6,0.5,0.8,0.7c-0.1-0.3-0.2-0.7-0.3-1c0-0.4-0.1-0.7-0.1-1.1V2.9h3.4
		v5.3c0,0.4,0,0.8-0.1,1.2c0,0.4-0.1,0.7-0.3,1.1c0.2-0.3,0.5-0.5,0.8-0.7c0.3-0.2,0.6-0.4,1-0.7l4.6-2.7l1.7,2.9l-4.6,2.6
		c-0.3,0.2-0.7,0.4-1,0.5c-0.3,0.1-0.7,0.2-1.1,0.3c0.7,0.1,1.4,0.4,2.1,0.8l4.6,2.7l-1.7,2.9l-4.6-2.7c-0.3-0.2-0.7-0.4-1-0.6
		c-0.3-0.2-0.6-0.5-0.8-0.7c0.2,0.6,0.4,1.3,0.4,2.1v5.3H34.3z"/>
</g>
<g>
	<path class="st0" d="M57.3,22.6v-5.3c0-0.4,0-0.8,0.1-1.1c0-0.4,0.1-0.7,0.2-1c-0.2,0.3-0.5,0.5-0.8,0.7c-0.3,0.2-0.6,0.4-0.9,0.6
		l-4.6,2.7l-1.7-2.9l4.6-2.7c0.3-0.2,0.7-0.4,1-0.5c0.3-0.1,0.7-0.2,1.1-0.3c-0.4,0-0.7-0.1-1.1-0.3c-0.3-0.2-0.7-0.3-1-0.6
		l-4.6-2.7l1.7-2.9L55.9,9c0.3,0.2,0.6,0.4,0.9,0.7c0.3,0.2,0.6,0.5,0.8,0.7c-0.1-0.3-0.2-0.7-0.3-1c0-0.4-0.1-0.7-0.1-1.1V2.9h3.4
		v5.3c0,0.4,0,0.8-0.1,1.2c0,0.4-0.1,0.7-0.3,1.1c0.2-0.3,0.5-0.5,0.8-0.7c0.3-0.2,0.6-0.4,1-0.7l4.6-2.7l1.7,2.9l-4.6,2.6
		c-0.3,0.2-0.7,0.4-1,0.5c-0.3,0.1-0.7,0.2-1.1,0.3c0.7,0.1,1.4,0.4,2.1,0.8l4.6,2.7l-1.7,2.9l-4.6-2.7c-0.3-0.2-0.7-0.4-1-0.6
		c-0.3-0.2-0.6-0.5-0.8-0.7c0.2,0.6,0.4,1.3,0.4,2.1v5.3H57.3z"/>
</g>
<g>
	<path class="st0" d="M80.3,22.6v-5.3c0-0.4,0-0.8,0.1-1.1c0-0.4,0.1-0.7,0.2-1c-0.2,0.3-0.5,0.5-0.8,0.7c-0.3,0.2-0.6,0.4-0.9,0.6
		l-4.6,2.7l-1.7-2.9l4.6-2.7c0.3-0.2,0.7-0.4,1-0.5c0.3-0.1,0.7-0.2,1.1-0.3c-0.4,0-0.7-0.1-1.1-0.3c-0.3-0.2-0.7-0.3-1-0.6
		l-4.6-2.7l1.7-2.9L78.9,9c0.3,0.2,0.6,0.4,0.9,0.7c0.3,0.2,0.6,0.5,0.8,0.7c-0.1-0.3-0.2-0.7-0.3-1c0-0.4-0.1-0.7-0.1-1.1V2.9h3.4
		v5.3c0,0.4,0,0.8-0.1,1.2c0,0.4-0.1,0.7-0.3,1.1c0.2-0.3,0.5-0.5,0.8-0.7c0.3-0.2,0.6-0.4,1-0.7l4.6-2.7l1.7,2.9l-4.6,2.6
		c-0.3,0.2-0.7,0.4-1,0.5c-0.3,0.1-0.7,0.2-1.1,0.3c0.7,0.1,1.4,0.4,2.1,0.8l4.6,2.7l-1.7,2.9l-4.6-2.7c-0.3-0.2-0.7-0.4-1-0.6
		c-0.3-0.2-0.6-0.5-0.8-0.7c0.2,0.6,0.4,1.3,0.4,2.1v5.3H80.3z"/>
</g>
<g>
	<path class="st0" d="M103.3,22.6v-5.3c0-0.4,0-0.8,0.1-1.1c0-0.4,0.1-0.7,0.2-1c-0.2,0.3-0.5,0.5-0.8,0.7c-0.3,0.2-0.6,0.4-0.9,0.6
		l-4.6,2.7l-1.7-2.9l4.6-2.7c0.3-0.2,0.7-0.4,1-0.5c0.3-0.1,0.7-0.2,1.1-0.3c-0.4,0-0.7-0.1-1.1-0.3c-0.3-0.2-0.7-0.3-1-0.6
		l-4.6-2.7l1.7-2.9l4.6,2.7c0.3,0.2,0.6,0.4,0.9,0.7c0.3,0.2,0.6,0.5,0.8,0.7c-0.1-0.3-0.2-0.7-0.3-1c0-0.4-0.1-0.7-0.1-1.1V2.9h3.4
		v5.3c0,0.4,0,0.8-0.1,1.2c0,0.4-0.1,0.7-0.3,1.1c0.2-0.3,0.5-0.5,0.8-0.7c0.3-0.2,0.6-0.4,1-0.7l4.6-2.7l1.7,2.9l-4.6,2.6
		c-0.3,0.2-0.7,0.4-1,0.5c-0.3,0.1-0.7,0.2-1.1,0.3c0.7,0.1,1.4,0.4,2.1,0.8l4.6,2.7l-1.7,2.9l-4.6-2.7c-0.3-0.2-0.7-0.4-1-0.6
		c-0.3-0.2-0.6-0.5-0.8-0.7c0.2,0.6,0.4,1.3,0.4,2.1v5.3H103.3z"/>
</g>
<g>
	<path class="st0" d="M126.3,22.6v-5.3c0-0.4,0-0.8,0.1-1.1c0-0.4,0.1-0.7,0.2-1c-0.2,0.3-0.5,0.5-0.8,0.7c-0.3,0.2-0.6,0.4-0.9,0.6
		l-4.6,2.7l-1.7-2.9l4.6-2.7c0.3-0.2,0.7-0.4,1-0.5c0.3-0.1,0.7-0.2,1.1-0.3c-0.4,0-0.7-0.1-1.1-0.3c-0.3-0.2-0.7-0.3-1-0.6
		l-4.6-2.7l1.7-2.9l4.6,2.7c0.3,0.2,0.6,0.4,0.9,0.7c0.3,0.2,0.6,0.5,0.8,0.7c-0.1-0.3-0.2-0.7-0.3-1c0-0.4-0.1-0.7-0.1-1.1V2.9h3.4
		v5.3c0,0.4,0,0.8-0.1,1.2c0,0.4-0.1,0.7-0.3,1.1c0.2-0.3,0.5-0.5,0.8-0.7c0.3-0.2,0.6-0.4,1-0.7l4.6-2.7l1.7,2.9l-4.6,2.6
		c-0.3,0.2-0.7,0.4-1,0.5c-0.3,0.1-0.7,0.2-1.1,0.3c0.7,0.1,1.4,0.4,2.1,0.8l4.6,2.7l-1.7,2.9l-4.6-2.7c-0.3-0.2-0.7-0.4-1-0.6
		c-0.3-0.2-0.6-0.5-0.8-0.7c0.2,0.6,0.4,1.3,0.4,2.1v5.3H126.3z"/>
</g>
</svg>
