<?xml version="1.0" encoding="utf-8"?>
<!-- Generator: Adobe Illustrator 21.0.2, SVG Export Plug-In . SVG Version: 6.00 Build 0)  -->
<svg version="1.1" id="Layer_1" xmlns="http://www.w3.org/2000/svg" xmlns:xlink="http://www.w3.org/1999/xlink" x="0px" y="0px"
	 viewBox="0 0 32 32" style="enable-background:new 0 0 32 32;" xml:space="preserve">
<style type="text/css">
	.st0{fill:#F8255E;}
	.st1{fill:#FFFFFF;}
</style>
<circle class="st0" cx="16" cy="16" r="14.5"/>
<path class="st1" d="M19.2,13.5c0,0.3-0.1,0.6-0.1,0.9c-0.1,0.4-0.1,0.8-0.2,1.2c0,0.2-0.1,0.2-0.3,0.2c-0.5,0-1,0-1.5,0
	c-0.2,0-0.2,0-0.2,0.2c0,1.8,0,3.5,0,5.3c0,0.2-0.1,0.3-0.3,0.3c-0.6,0-1.2,0-1.8,0c-0.2,0-0.3-0.1-0.3-0.3c0-1.7,0-3.5,0-5.2
	c0-0.3,0-0.3-0.3-0.3c-0.5,0-0.9,0-1.4,0c-0.2,0-0.2-0.1-0.2-0.2c0-0.6,0-1.3,0-1.9c0-0.2,0.1-0.2,0.2-0.2c0.5,0,1,0,1.5,0
	c0.2,0,0.2-0.1,0.2-0.2c0-0.6,0-1.2,0-1.9c0.1-1.6,1.2-2.5,2.7-2.6c0.5,0,1.1,0,1.6,0c0.2,0,0.3,0.1,0.3,0.3c0,0.6,0,1.2,0,1.8
	c-0.3,0-0.6,0-0.9,0c-0.3,0-0.6,0-0.8,0.1c-0.3,0.1-0.5,0.3-0.6,0.6c0,0.6,0,1.1,0,1.7c0,0,0.1,0.1,0.2,0.1c0.6,0,1.1,0,1.7,0
	C19.1,13.5,19.1,13.5,19.2,13.5z"/>
</svg>
