<?xml version="1.0" encoding="utf-8"?>
<!-- Generator: Adobe Illustrator 21.0.2, SVG Export Plug-In . SVG Version: 6.00 Build 0)  -->
<svg version="1.1" id="Layer_1" xmlns="http://www.w3.org/2000/svg" xmlns:xlink="http://www.w3.org/1999/xlink" x="0px" y="0px"
	 viewBox="0 0 32 32" style="enable-background:new 0 0 32 32;" xml:space="preserve">
<style type="text/css">
	.st0{fill:#F8255E;}
	.st1{fill:#FFFFFF;}
</style>
<circle class="st0" cx="16" cy="16" r="14.5"/>
<g>
	<path class="st1" d="M21,19.8c-0.7,0-1.4,0-2.1,0c0-0.1,0-0.2,0-0.2c0-1,0-2.1,0-3.1c0-0.3-0.1-0.5-0.1-0.8
		c-0.2-0.8-1.2-0.9-1.7-0.4c-0.3,0.2-0.4,0.5-0.4,0.9c0,1.1,0,2.3,0,3.4c0,0.1,0,0.2,0,0.3c-0.1,0-0.2,0-0.2,0c-0.6,0-1.1,0-1.7,0
		c-0.2,0-0.2-0.1-0.2-0.2c0-1.9,0-3.9,0-5.8c0-0.4,0-0.4,0.4-0.4c0.5,0,1,0,1.5,0c0.1,0,0.1,0,0.2,0c0,0.3,0,0.5,0,0.7
		c0,0,0.1,0,0.1,0.1c0-0.1,0-0.1,0.1-0.2c0.6-0.7,1.4-0.9,2.3-0.7c1.1,0.2,1.7,0.9,1.9,2c0,0.2,0.1,0.4,0.1,0.6c0,1.2,0,2.5,0,3.7
		C21,19.7,21,19.7,21,19.8z"/>
	<path class="st1" d="M13.3,19.8c-0.7,0-1.4,0-2,0c0,0-0.1-0.1-0.1-0.1c0,0,0-0.1,0-0.1c0-2,0-3.9,0-5.9c0-0.1,0-0.2,0-0.2
		c0.1,0,0.1,0,0.2,0c0.6,0,1.2,0,1.8,0c0.1,0,0.2,0,0.2,0.2c0,2,0,4.1,0,6.1C13.3,19.7,13.3,19.7,13.3,19.8z"/>
	<path class="st1" d="M12.3,12.5c-0.6,0-1-0.2-1.2-0.7c-0.3-0.8,0.2-1.5,1-1.5c0.5-0.1,0.9,0,1.2,0.5c0.2,0.4,0.3,0.8,0.1,1.2
		C13.1,12.3,12.7,12.5,12.3,12.5z"/>
</g>
</svg>
