<?xml version="1.0" encoding="utf-8"?>
<!-- Generator: Adobe Illustrator 21.0.2, SVG Export Plug-In . SVG Version: 6.00 Build 0)  -->
<svg version="1.1" id="Layer_1" xmlns="http://www.w3.org/2000/svg" xmlns:xlink="http://www.w3.org/1999/xlink" x="0px" y="0px"
	 viewBox="0 0 177 65" style="enable-background:new 0 0 177 65;" xml:space="preserve">
<style type="text/css">
	.st0{fill:#2B75E0;}
	.st1{fill:#DDD70B;}
</style>
<path class="st0" d="M123.3,4.1h46.3c0.8,0,1.4,0.6,1.4,1.4v47.3c0,0.8-0.6,1.4-1.4,1.4H153c-0.3,0-0.6,0.1-0.8,0.3l-11.5,9.2
	c-0.9,0.7-2.2,0-2.2-1.1v-6.9c0-0.8-0.6-1.4-1.4-1.4h-13.8c-0.8,0-1.4-0.6-1.4-1.4V5.5C121.9,4.8,122.5,4.1,123.3,4.1z"/>
<g>
	<path class="st1" d="M131.6,46.4c-0.3,0-0.6-0.3-0.6-0.7V11.9c0-0.2,0.2-0.5,0.4-0.5h8c0.3,0,0.6,0.2,0.6,0.5v33.9
		c0,0.3-0.2,0.6-0.6,0.6H131.6z"/>
	<path class="st1" d="M148.1,46.4c-0.3,0-0.7-0.3-0.7-0.7V21.4c0-0.3-0.3-0.6-0.6-0.6h-4.7c-0.3,0-0.6-0.4-0.6-0.7v-8.3
		c0-0.3,0.1-0.5,0.4-0.5h19.9c0.3,0,0.6,0.2,0.6,0.6v8.2c0,0.4-0.3,0.7-0.7,0.7h-4.7c-0.3,0-0.6,0.2-0.6,0.7v24.3
		c0,0.3-0.3,0.6-0.7,0.6H148.1z"/>
</g>
<g>
	<g>
		<path d="M40,11.7c0.7,0,1,0.4,0.9,1l-4.8,32.9c-0.1,0.6-0.4,0.9-1.1,0.9h-5.4c-0.6,0-0.9-0.3-1.1-0.9L24,25.2l-4.6,20.4
			c-0.1,0.6-0.5,0.9-1.1,0.9h-5.5c-0.6,0-1-0.3-1.1-0.9L7.2,12.7c-0.1-0.6,0.2-1,0.9-1h4.7c0.6,0,0.9,0.3,1,0.9l2.4,20.8h0.2
			l4.9-20.9c0.1-0.5,0.5-0.8,1.1-0.8h3c0.6,0,0.9,0.3,1.1,0.8l4.9,20.9h0.2l2.5-20.8c0.1-0.6,0.4-0.9,1-0.9H40z"/>
		<path d="M45.3,18.9c0-4.7,2.5-7.2,7.2-7.2h5.6c4.7,0,7.2,2.5,7.2,7.2v20.5c0,4.7-2.5,7.2-7.2,7.2h-5.6c-4.7,0-7.2-2.5-7.2-7.2
			V18.9z M57,40.1c1.3,0,2-0.6,2-2v-18c0-1.3-0.7-2-2-2h-3.2c-1.3,0-2,0.7-2,2v18c0,1.3,0.7,2,2,2H57z"/>
		<path d="M90.1,28.9c0,2.9-0.9,4.9-2.8,6.1l2.6,10.7c0.1,0.6-0.1,0.9-0.7,0.9h-4.9c-0.5,0-0.7-0.2-0.8-0.7L81.1,36h-4.4v9.7
			c0,0.5-0.3,0.8-0.8,0.8H71c-0.5,0-0.8-0.3-0.8-0.8V12.5c0-0.5,0.3-0.8,0.8-0.8h11.9c4.7,0,7.2,2.5,7.2,7.2V28.9z M81.7,29.6
			c1.3,0,2-0.7,2-2v-7.5c0-1.3-0.7-2-2-2h-5v11.5H81.7z"/>
		<path d="M111.1,46.5c-0.6,0-0.9-0.2-1.1-0.7l-6.3-12.3l-1.8,3.5v8.5c0,0.6-0.3,1-1,1h-4.8c-0.6,0-1-0.3-1-1V12.7c0-0.6,0.3-1,1-1
			h4.8c0.6,0,1,0.3,1,1v12.9l7.7-13.2c0.2-0.4,0.6-0.7,1.1-0.7h5.2c0.7,0,1.1,0.5,0.7,1.2l-8.5,14.9l9,17.6c0.3,0.6,0,1.1-0.7,1.1
			H111.1z"/>
	</g>
</g>
</svg>
